<?xml version="1.0" encoding="utf-8"?>
<!-- Generator: Adobe Illustrator 15.0.2, SVG Export Plug-In . SVG Version: 6.00 Build 0)  -->
<!DOCTYPE svg PUBLIC "-//W3C//DTD SVG 1.1//EN" "http://www.w3.org/Graphics/SVG/1.1/DTD/svg11.dtd">
<svg version="1.1" id="Layer_1" xmlns="http://www.w3.org/2000/svg" xmlns:xlink="http://www.w3.org/1999/xlink" x="0px" y="0px"
	 width="1024px" height="1024px" viewBox="0 0 1024 1024" enable-background="new 0 0 1024 1024" xml:space="preserve">
<path d="M506.524,47.177c-256.716,0-464.783,208.144-464.781,464.86c0,256.641,208.065,464.783,464.781,464.783
	c256.717,0,464.861-208.142,464.861-464.783C971.385,255.321,763.242,47.177,506.524,47.177z M902.484,563.912l-3.925,24.763
	l-5.466,24.464l-6.998,24.081l-8.489,23.584l-9.96,23.008l-11.377,22.341l-12.766,21.577l-14.092,20.733l-15.363,19.81
	l-16.58,18.802l-17.729,17.729l-18.801,16.58l-19.811,15.362l-20.732,14.092l-21.584,12.766l-22.335,11.377l-23.008,9.959
	l-23.592,8.491l-24.073,6.997l-24.465,5.465l-24.761,3.925l-24.96,2.358l-25.056,0.791l-25.057-0.791l-24.959-2.358l-24.761-3.925
	l-24.465-5.465l-24.079-6.997l-23.585-8.491l-23.008-9.959l-22.335-11.377l-21.585-12.766l-20.731-14.092l-19.812-15.362
	l-18.801-16.58l-17.728-17.729l-16.58-18.802l-15.364-19.81l-14.092-20.733l-12.766-21.577l-11.376-22.341l-9.961-23.008
	l-8.489-23.584l-6.998-24.081l-5.466-24.464l-3.925-24.763l-2.357-24.959l-0.791-25.056l0.791-25.056l2.357-24.96l3.925-24.762
	l5.466-24.465l6.998-24.08l8.489-23.585l9.961-23.007l11.376-22.341l12.766-21.578l14.092-20.732l15.364-19.811l16.58-18.802
	l17.728-17.728l18.801-16.58l19.812-15.364l20.731-14.092l21.585-12.765l22.335-11.377l23.008-9.961l23.592-8.489l24.072-6.998
	l24.465-5.465l24.761-3.925l24.959-2.358l25.057-0.79l25.056,0.79l24.96,2.358l24.761,3.925l24.465,5.465l24.08,6.998l23.585,8.489
	l23.008,9.961l22.335,11.377l21.584,12.765l20.732,14.092l19.811,15.364l18.801,16.58l17.729,17.728l16.58,18.802l15.363,19.811
	l14.092,20.732l12.766,21.578l11.377,22.341l9.96,23.007l8.489,23.585l6.998,24.08l5.466,24.465l3.925,24.762l2.357,24.96
	l0.791,25.056l-0.791,25.056L902.484,563.912z"/>
<g enable-background="new    ">
	<path d="M1159.759,178.327v288.569h353.429V178.327h89.295v671.14h-89.295V542.094h-353.429v307.371h-89.299V178.327H1159.759z"/>
</g>
</svg>
