<?xml version="1.0" encoding="utf-8"?>
<!-- Generator: Adobe Illustrator 15.0.2, SVG Export Plug-In . SVG Version: 6.00 Build 0)  -->
<!DOCTYPE svg PUBLIC "-//W3C//DTD SVG 1.1//EN" "http://www.w3.org/Graphics/SVG/1.1/DTD/svg11.dtd">
<svg version="1.1" id="Layer_1" xmlns="http://www.w3.org/2000/svg" xmlns:xlink="http://www.w3.org/1999/xlink" x="0px" y="0px"
	 width="1024px" height="1024px" viewBox="0 0 1024 1024" enable-background="new 0 0 1024 1024" xml:space="preserve">
<polygon fill="none" points="653.469,142.853 676.477,152.814 698.812,164.191 720.396,176.956 739.933,190.235 720.394,176.954 
	698.81,164.189 676.475,152.812 653.467,142.851 506.564,513.89 506.564,513.897 "/>
<polygon fill="none" points="797.468,787.074 779.74,804.802 760.939,821.385 741.128,836.745 720.396,850.84 698.812,863.602 
	676.477,874.979 653.469,884.938 629.877,893.429 605.804,900.427 581.339,905.891 556.575,909.816 531.615,912.177 
	506.563,912.969 481.506,912.177 456.547,909.816 431.783,905.891 407.322,900.427 383.242,893.429 359.657,884.938 336.65,874.979 
	314.315,863.602 292.73,850.84 271.998,836.745 252.187,821.385 233.386,804.802 215.658,787.074 199.078,768.272 183.714,748.466 
	169.622,727.729 156.857,706.152 145.481,683.811 135.52,660.803 127.031,637.219 120.032,613.138 114.567,588.677 110.642,563.912 
	108.284,538.953 107.493,513.897 108.284,488.844 110.642,463.885 114.567,439.12 120.032,414.655 127.031,390.575 135.52,366.99 
	145.481,343.983 156.857,321.642 169.622,300.064 183.714,279.332 199.078,259.521 215.658,240.719 233.386,222.992 
	252.187,206.412 271.998,191.048 292.73,176.956 314.315,164.191 336.65,152.814 359.657,142.853 383.249,134.364 407.322,127.366 
	431.783,121.901 456.547,117.976 481.506,115.618 506.561,114.828 506.561,114.826 481.504,115.616 456.545,117.974 
	431.781,121.899 407.319,127.364 383.247,134.362 359.655,142.851 336.647,152.812 314.312,164.189 292.727,176.954 
	271.996,191.046 252.184,206.41 233.383,222.99 215.655,240.718 199.074,259.52 183.711,279.331 169.619,300.063 156.853,321.641 
	145.477,343.982 135.516,366.989 127.027,390.574 120.029,414.654 114.563,439.119 110.638,463.884 108.281,488.844 107.49,513.897 
	108.281,538.953 110.638,563.912 114.563,588.677 120.029,613.139 127.027,637.22 135.516,660.804 145.477,683.812 156.853,706.153 
	169.619,727.73 183.711,748.466 199.074,768.273 215.655,787.075 233.383,804.804 252.184,821.386 271.996,836.746 292.727,850.841 
	314.312,863.604 336.647,874.981 359.655,884.94 383.24,893.431 407.319,900.429 431.781,905.893 456.545,909.818 481.504,912.178 
	506.561,912.969 531.615,912.178 556.574,909.818 581.338,905.893 605.803,900.429 629.875,893.431 653.468,884.94 676.476,874.981 
	698.811,863.604 720.395,850.841 741.127,836.746 760.938,821.386 779.739,804.804 797.468,787.075 814.048,768.273 
	829.408,748.466 814.048,768.272 "/>
<polygon fill="none" points="886.095,637.219 877.606,660.803 867.646,683.811 856.269,706.152 843.503,727.729 829.408,748.466 
	843.503,727.73 856.269,706.153 867.646,683.812 877.606,660.804 886.095,637.22 893.093,613.139 898.559,588.677 893.093,613.138 
	"/>
<polygon fill="none" points="779.74,222.992 797.467,240.719 797.467,240.719 779.738,222.99 760.937,206.41 749.47,197.517 
	760.939,206.412 "/>
<polygon fill="none" points="905.631,513.897 904.84,488.844 902.483,463.884 898.558,439.119 893.092,414.654 886.094,390.574 
	877.605,366.989 867.645,343.982 856.268,321.641 843.502,300.063 829.407,279.331 814.047,259.52 797.467,240.719 779.74,222.992 
	760.939,206.412 749.47,197.517 741.125,191.046 739.933,190.235 720.396,176.956 698.812,164.191 676.477,152.814 653.469,142.853 
	506.564,513.897 506.564,513.89 506.562,513.895 506.561,114.828 481.506,115.618 456.547,117.976 431.783,121.901 407.322,127.366 
	383.249,134.364 359.657,142.853 336.65,152.814 314.315,164.191 292.73,176.956 271.998,191.048 252.187,206.412 233.386,222.992 
	215.658,240.719 199.078,259.521 183.714,279.332 169.622,300.064 156.857,321.642 145.481,343.983 135.52,366.99 127.031,390.575 
	120.032,414.655 114.567,439.12 110.642,463.885 108.284,488.844 107.493,513.897 108.284,538.953 110.642,563.912 114.567,588.677 
	120.032,613.138 127.031,637.219 135.52,660.803 145.481,683.811 156.857,706.152 169.622,727.729 183.714,748.466 199.078,768.272 
	215.658,787.074 233.386,804.802 252.187,821.385 271.998,836.745 292.73,850.84 314.315,863.602 336.65,874.979 359.657,884.938 
	383.242,893.429 407.322,900.427 431.783,905.891 456.547,909.816 481.506,912.177 506.563,912.969 531.615,912.177 
	556.575,909.816 581.339,905.891 605.804,900.427 629.877,893.429 653.469,884.938 676.477,874.979 698.812,863.602 720.396,850.84 
	741.128,836.745 760.939,821.385 779.74,804.802 797.468,787.074 814.048,768.272 829.408,748.466 843.503,727.729 856.269,706.152 
	867.646,683.811 877.606,660.803 886.095,637.219 893.093,613.138 898.559,588.677 902.484,563.912 904.84,538.953 "/>
<path d="M506.524,47.177c-256.716,0-464.782,208.144-464.779,464.858c0,256.642,208.064,464.782,464.779,464.782
	s464.861-208.14,464.861-464.783C971.385,255.321,763.241,47.177,506.524,47.177z M902.484,563.912l-3.925,24.766l-5.466,24.462
	l-6.998,24.081l-8.489,23.584l-9.96,23.008l-11.377,22.341l-12.766,21.577l-14.095,20.735l-15.36,19.808l-16.58,18.802
	l-17.729,17.729l-18.801,16.582l-19.811,15.359l-20.732,14.095l-21.584,12.764l-22.335,11.377l-23.008,9.959l-23.593,8.491
	l-24.072,6.998l-24.465,5.464l-24.764,3.925l-24.96,2.36l-25.054,0.791l-25.057-0.791l-24.959-2.36l-24.764-3.925l-24.463-5.464
	l-24.079-6.998l-23.585-8.491l-23.008-9.959l-22.335-11.377l-21.585-12.764l-20.73-14.095l-19.812-15.359l-18.801-16.582
	l-17.729-17.729l-16.58-18.802l-15.363-19.808l-14.092-20.735l-12.767-21.577l-11.376-22.341l-9.961-23.008l-8.489-23.584
	l-6.998-24.081l-5.466-24.462l-3.925-24.766l-2.357-24.959l-0.791-25.056l0.791-25.054l2.357-24.96l3.925-24.765l5.466-24.465
	l6.998-24.08l8.489-23.585l9.961-23.007l11.376-22.341l12.767-21.578l14.092-20.732l15.363-19.811l16.58-18.803l17.729-17.728
	l18.801-16.58l19.812-15.364l20.73-14.092l21.585-12.765l22.335-11.377l23.008-9.961l23.593-8.489l24.071-6.998l24.463-5.465
	l24.764-3.925l24.959-2.358l25.057-0.79v0.002h0.002l0.001,399.062l146.903-371.039l23.008,9.961l22.335,11.377l21.584,12.765
	l19.539,13.281l1.195,0.812l8.342,6.47l11.467,8.893l18.801,16.58l17.729,17.729l0,0l0.001,0.001l16.58,18.802l15.36,19.811
	l14.095,20.732l12.766,21.578l11.377,22.341l9.96,23.007l8.489,23.585l6.998,24.08l5.466,24.465l3.925,24.765l2.357,24.96
	l0.791,25.053l-0.791,25.056L902.484,563.912z"/>
<polygon points="749.47,197.517 741.128,191.048 739.933,190.235 741.125,191.046 "/>
<polygon points="904.841,488.844 902.484,463.885 898.559,439.12 893.093,414.655 886.095,390.575 877.606,366.99 867.646,343.983 
	856.269,321.642 843.503,300.064 829.408,279.332 814.048,259.521 797.468,240.719 797.467,240.719 814.047,259.52 829.407,279.331 
	843.502,300.063 856.268,321.641 867.645,343.982 877.605,366.989 886.094,390.574 893.092,414.654 898.558,439.119 
	902.483,463.884 904.84,488.844 905.631,513.897 904.84,538.953 902.484,563.912 904.841,538.953 905.632,513.897 "/>
<rect x="506.561" y="114.828" width="0.002" height="399.062"/>
</svg>
