<?xml version="1.0" encoding="utf-8"?>
<!-- Generator: Adobe Illustrator 15.0.2, SVG Export Plug-In . SVG Version: 6.00 Build 0)  -->
<!DOCTYPE svg PUBLIC "-//W3C//DTD SVG 1.1//EN" "http://www.w3.org/Graphics/SVG/1.1/DTD/svg11.dtd">
<svg version="1.1" id="Layer_1" xmlns="http://www.w3.org/2000/svg" xmlns:xlink="http://www.w3.org/1999/xlink" x="0px" y="0px"
	 width="1024px" height="1024px" viewBox="0 0 1024 1024" enable-background="new 0 0 1024 1024" xml:space="preserve">
<polygon fill="none" points="904.841,488.844 902.484,463.885 898.559,439.12 893.093,414.655 886.095,390.575 877.606,366.99 
	506.563,513.898 506.563,114.828 481.506,115.618 456.547,117.976 431.783,121.901 407.322,127.366 383.249,134.364 
	359.657,142.853 336.65,152.814 314.315,164.191 292.73,176.956 271.998,191.048 252.187,206.412 233.386,222.992 215.658,240.719 
	199.078,259.521 183.714,279.332 169.622,300.064 156.857,321.642 145.481,343.983 135.52,366.99 127.031,390.575 120.032,414.655 
	114.567,439.12 110.642,463.885 108.284,488.844 107.493,513.897 108.284,538.953 110.642,563.912 114.567,588.677 120.032,613.138 
	127.031,637.219 135.52,660.803 145.481,683.811 156.857,706.152 169.622,727.729 183.714,748.466 199.078,768.272 215.658,787.074 
	233.386,804.802 252.187,821.385 271.998,836.745 292.73,850.84 314.315,863.602 336.65,874.979 359.657,884.938 383.242,893.429 
	407.322,900.427 431.783,905.891 456.547,909.816 481.506,912.177 506.563,912.969 531.615,912.177 556.575,909.816 
	581.339,905.891 605.804,900.427 629.877,893.429 653.469,884.938 676.477,874.979 698.812,863.602 720.396,850.84 741.128,836.745 
	760.939,821.385 779.74,804.802 797.468,787.074 814.048,768.272 829.408,748.466 843.503,727.729 856.269,706.152 867.646,683.811 
	877.606,660.803 886.095,637.219 893.093,613.138 898.559,588.677 902.484,563.912 904.841,538.953 905.632,513.897 "/>
<path d="M506.524,47.177c-256.716,0-464.783,208.144-464.78,464.859c0,256.641,208.065,464.781,464.78,464.781
	s464.861-208.139,464.861-464.783C971.385,255.321,763.242,47.177,506.524,47.177z M902.484,563.912l-3.925,24.766l-5.466,24.461
	l-6.998,24.081l-8.489,23.584l-9.96,23.008l-11.377,22.341l-12.766,21.577l-14.095,20.736l-15.36,19.807l-16.58,18.802
	l-17.729,17.729l-18.801,16.583l-19.811,15.359l-20.732,14.095l-21.584,12.763l-22.335,11.377l-23.008,9.959l-23.592,8.491
	l-24.073,6.998l-24.465,5.464l-24.764,3.925l-24.96,2.361l-25.053,0.791l-25.057-0.791l-24.959-2.361l-24.764-3.925l-24.462-5.464
	l-24.079-6.998l-23.585-8.491l-23.008-9.959l-22.335-11.377L292.73,850.84l-20.731-14.095l-19.812-15.359l-18.801-16.583
	l-17.728-17.729l-16.58-18.802l-15.364-19.807l-14.092-20.736l-12.766-21.577l-11.376-22.341l-9.961-23.008l-8.489-23.584
	l-6.998-24.081l-5.466-24.461l-3.925-24.766l-2.357-24.959l-0.791-25.056l0.791-25.053l2.357-24.96l3.925-24.765l5.466-24.465
	l6.998-24.08l8.489-23.585l9.961-23.007l11.376-22.341l12.766-21.578l14.092-20.732l15.364-19.811l16.58-18.802l17.728-17.728
	l18.801-16.58l19.812-15.364l20.731-14.092l21.585-12.765l22.335-11.377l23.008-9.961l23.592-8.489l24.072-6.998l24.462-5.465
	l24.764-3.925l24.959-2.358l25.057-0.79v399.07L877.606,366.99l8.489,23.585l6.998,24.08l5.466,24.465l3.925,24.765l2.357,24.96
	l0.791,25.053l-0.791,25.056L902.484,563.912z"/>
</svg>
