<?xml version="1.0" encoding="utf-8"?>
<!-- Generator: Adobe Illustrator 15.0.2, SVG Export Plug-In . SVG Version: 6.00 Build 0)  -->
<!DOCTYPE svg PUBLIC "-//W3C//DTD SVG 1.1//EN" "http://www.w3.org/Graphics/SVG/1.1/DTD/svg11.dtd">
<svg version="1.1" id="Layer_1" xmlns="http://www.w3.org/2000/svg" xmlns:xlink="http://www.w3.org/1999/xlink" x="0px" y="0px"
	 width="1024px" height="1024px" viewBox="0 0 1024 1024" enable-background="new 0 0 1024 1024" xml:space="preserve">
<path d="M506.524,47.177c-256.716,0-464.783,208.144-464.78,464.859c0,256.641,208.065,464.78,464.78,464.78
	s464.861-208.138,464.861-464.783C971.385,255.321,763.242,47.177,506.524,47.177z M902.484,563.912l-3.925,24.766l-5.466,24.461
	l-6.998,24.081l-8.489,23.584l-9.96,23.008l-11.377,22.341l-12.766,21.577l-14.096,20.737l-15.359,19.806l-16.58,18.802
	l-17.729,17.729l-18.801,16.583l-19.811,15.359l-20.732,14.096l-21.584,12.762l-22.335,11.377l-23.008,9.959l-23.592,8.491
	l-24.073,6.998l-24.465,5.464l-24.765,3.925l-24.96,2.361l-25.052,0.792l-25.057-0.792l-24.959-2.361l-24.765-3.925l-24.461-5.464
	l-24.079-6.998l-23.585-8.491l-23.008-9.959l-22.335-11.377l-21.585-12.762l-20.731-14.096l-19.812-15.359l-18.801-16.583
	l-17.728-17.729l-16.58-18.802l-15.364-19.806l-14.092-20.737l-12.766-21.577l-11.376-22.341l-9.961-23.008l-8.489-23.584
	l-6.998-24.081l-5.466-24.461l-3.925-24.766l-2.357-24.959l-0.791-25.056l0.791-25.053l2.357-24.959l3.925-24.766l5.466-24.465
	l6.998-24.08l8.489-23.585l9.961-23.007l11.376-22.341l12.766-21.578l14.092-20.732l15.364-19.811l16.58-18.802l17.728-17.728
	l18.801-16.58l19.812-15.364l20.731-14.092l21.585-12.765l22.335-11.377l23.008-9.961l23.592-8.489l24.072-6.998l24.461-5.465
	l24.765-3.925l24.959-2.358l25.057-0.79L512,513.896l381.093-99.241l5.466,24.465l3.925,24.766l2.357,24.959l0.791,25.053
	l-0.791,25.056L902.484,563.912z"/>
</svg>
