<?xml version="1.0" encoding="utf-8"?>
<!-- Generator: Adobe Illustrator 15.0.2, SVG Export Plug-In . SVG Version: 6.00 Build 0)  -->
<!DOCTYPE svg PUBLIC "-//W3C//DTD SVG 1.1//EN" "http://www.w3.org/Graphics/SVG/1.1/DTD/svg11.dtd">
<svg version="1.1" id="Layer_1" xmlns="http://www.w3.org/2000/svg" xmlns:xlink="http://www.w3.org/1999/xlink" x="0px" y="0px"
	 width="1024px" height="1024px" viewBox="0 0 1024 1024" enable-background="new 0 0 1024 1024" xml:space="preserve">
<path d="M506.524,47.177c-256.716,0-464.783,208.144-464.779,464.858c0,256.642,208.064,464.778,464.779,464.778
	s464.861-208.137,464.861-464.783C971.385,255.321,763.242,47.177,506.524,47.177z M581.339,905.891l-24.767,3.925l-24.958,2.361
	l-25.052,0.792l-25.057-0.792l-24.959-2.361l-24.767-3.925l-24.459-5.464l-24.079-6.998l-23.585-8.491l-23.008-9.959l-22.335-11.377
	l-21.585-12.759l-20.731-14.099l-19.812-15.359l-18.801-16.583l-17.728-17.729l-16.58-18.802l-15.364-19.803l-14.092-20.74
	l-12.766-21.577l-11.376-22.341l-9.961-23.008l-8.489-23.584l-6.998-24.081l-5.466-24.461l-3.925-24.766l-2.357-24.959
	l-0.791-25.056l0.791-25.053l2.357-24.959l3.925-24.766l5.466-24.465l6.998-24.08l8.489-23.585l9.961-23.007l11.376-22.341
	l12.766-21.578l14.092-20.732l15.364-19.811l16.58-18.802l17.728-17.728l18.801-16.58l19.812-15.364l20.731-14.092l21.585-12.765
	l22.335-11.377l23.008-9.961l23.592-8.489l24.072-6.998l24.459-5.465l24.767-3.925l24.959-2.358l25.057-0.79l0.001,399.07
	l99.24,386.529L581.339,905.891z"/>
</svg>
