<?xml version="1.0" encoding="utf-8"?>
<!-- Generator: Adobe Illustrator 15.0.2, SVG Export Plug-In . SVG Version: 6.00 Build 0)  -->
<!DOCTYPE svg PUBLIC "-//W3C//DTD SVG 1.1//EN" "http://www.w3.org/Graphics/SVG/1.1/DTD/svg11.dtd">
<svg version="1.1" id="Layer_1" xmlns="http://www.w3.org/2000/svg" xmlns:xlink="http://www.w3.org/1999/xlink" x="0px" y="0px"
	 width="1024px" height="1024px" viewBox="0 0 1024 1024" enable-background="new 0 0 1024 1024" xml:space="preserve">
<polygon fill="none" points="481.506,115.618 456.547,117.976 431.781,121.901 407.322,127.366 383.249,134.364 359.657,142.853 
	336.65,152.814 314.315,164.191 292.73,176.956 271.998,191.048 252.187,206.412 233.386,222.992 215.658,240.719 199.078,259.521 
	183.714,279.332 169.622,300.064 156.857,321.642 145.481,343.983 506.564,513.898 506.563,114.828 "/>
<path d="M506.524,47.177c-256.716,0-464.783,208.144-464.779,464.858c0,256.642,208.064,464.778,464.779,464.778
	s464.861-208.137,464.861-464.783C971.385,255.321,763.242,47.177,506.524,47.177z M145.481,343.983l11.376-22.341l12.766-21.578
	l14.092-20.732l15.364-19.811l16.58-18.802l17.728-17.728l18.801-16.58l19.812-15.364l20.731-14.092l21.585-12.765l22.335-11.377
	l23.008-9.961l23.592-8.489l24.072-6.998l24.459-5.465l24.767-3.925l24.959-2.358l25.057-0.79l0.001,399.07L145.481,343.983z"/>
</svg>
