<?xml version="1.0" encoding="utf-8"?>
<!-- Generator: Adobe Illustrator 15.0.2, SVG Export Plug-In . SVG Version: 6.00 Build 0)  -->
<!DOCTYPE svg PUBLIC "-//W3C//DTD SVG 1.1//EN" "http://www.w3.org/Graphics/SVG/1.1/DTD/svg11.dtd">
<svg version="1.1" id="Layer_1" xmlns="http://www.w3.org/2000/svg" xmlns:xlink="http://www.w3.org/1999/xlink" x="0px" y="0px"
	 width="1024px" height="1024px" viewBox="0 0 1024 1024" enable-background="new 0 0 1024 1024" xml:space="preserve">
<path d="M506.524,47.177c256.719,0,464.861,208.144,464.861,464.861c0,256.641-208.144,464.783-464.861,464.783
	c-256.716,0-464.782-208.143-464.782-464.783C41.74,255.321,249.808,47.177,506.524,47.177z"/>
<polygon fill="#FFFFFF" points="506.563,114.828 531.619,115.618 556.579,117.976 581.339,121.901 605.804,127.366 629.884,134.364 
	653.469,142.853 676.477,152.814 698.812,164.191 720.396,176.956 741.128,191.048 760.939,206.412 779.74,222.992 797.468,240.719 
	814.048,259.521 829.412,279.332 843.503,300.064 856.269,321.642 867.646,343.983 877.606,366.99 886.095,390.575 893.093,414.655 
	898.559,439.12 902.484,463.881 904.841,488.841 905.632,513.897 904.841,538.953 902.484,563.912 898.559,588.674 893.093,613.138 
	886.095,637.219 877.606,660.803 867.646,683.811 856.269,706.152 843.503,727.729 829.412,748.462 814.048,768.272 
	797.468,787.074 779.74,804.802 760.939,821.382 741.128,836.745 720.396,850.836 698.812,863.602 676.477,874.979 653.469,884.938 
	629.877,893.429 605.804,900.426 581.339,905.891 556.579,909.816 531.619,912.174 506.563,912.965 481.506,912.174 
	456.547,909.816 431.787,905.891 407.322,900.426 383.242,893.429 359.657,884.938 336.65,874.979 314.315,863.602 292.73,850.836 
	271.998,836.745 252.187,821.382 233.386,804.802 215.658,787.074 199.078,768.272 183.714,748.462 169.622,727.729 
	156.857,706.152 145.481,683.811 135.52,660.803 127.031,637.219 120.032,613.138 114.567,588.674 110.642,563.912 108.284,538.953 
	107.493,513.897 108.284,488.841 110.642,463.881 114.567,439.12 120.032,414.655 127.031,390.575 135.52,366.99 145.481,343.983 
	156.857,321.642 169.622,300.064 183.714,279.332 199.078,259.521 215.658,240.719 233.386,222.992 252.187,206.412 
	271.998,191.048 292.73,176.956 314.315,164.191 336.65,152.814 359.657,142.853 383.249,134.364 407.322,127.366 431.787,121.901 
	456.547,117.976 481.506,115.618 "/>
<g enable-background="new    ">
	<path d="M1159.759,178.327v288.569h353.429V178.327h89.295v671.139h-89.295V542.094h-353.429v307.371h-89.299V178.327H1159.759z"/>
</g>
</svg>
